<svg xmlns="http://www.w3.org/2000/svg" width="36" height="36" viewBox="0 0 54.648 54.648">
  <g id="Group_9" data-name="Group 9" transform="translate(-170 -240)">
    <g id="Group_8" data-name="Group 8" transform="translate(170 240)">
      <g id="Group_5" data-name="Group 5">
        <path id="Path_3" data-name="Path 3" d="M27.324,0A27.324,27.324,0,1,0,54.648,27.324,27.326,27.326,0,0,0,27.324,0Zm0,53.13A25.806,25.806,0,1,1,53.13,27.324,25.8,25.8,0,0,1,27.324,53.13Z" fill="#fff"/>
        <path id="Path_5" data-name="Path 5" d="M26.059,0A26.059,26.059,0,1,0,52.118,26.059,26.061,26.061,0,0,0,26.059,0Zm0,50.67A24.611,24.611,0,1,1,50.67,26.059,24.609,24.609,0,0,1,26.059,50.67Z" transform="translate(1.265 1.265)" fill="#fff"/>
        <path id="Path_6" data-name="Path 6" d="M24.766,0A24.766,24.766,0,1,0,49.532,24.766,24.768,24.768,0,0,0,24.766,0Zm0,48.157a23.39,23.39,0,1,1,23.39-23.39A23.388,23.388,0,0,1,24.766,48.157Z" transform="translate(2.558 2.558)" fill="#fff"/>
      </g>
      <g id="Group_6" data-name="Group 6" transform="translate(16.698 8.59)">
        <circle id="Ellipse_1" data-name="Ellipse 1" cx="11" cy="11" r="11" transform="translate(-0.374 -0.266)" fill="#fff"/>
      </g>
      <g id="Group_7" data-name="Group 7" transform="translate(6.998 33.396)">
        <path id="Path_4" data-name="Path 4" d="M24.936,42.252a25.7,25.7,0,0,0,20.326-9.958C42.621,25.767,34.515,21,24.936,21S7.251,25.767,4.61,32.294A25.7,25.7,0,0,0,24.936,42.252Z" transform="translate(-4.61 -21)" fill="#fff"/>
      </g>
    </g>
  </g>
</svg>
