<svg xmlns="http://www.w3.org/2000/svg" width="138" height="28" viewBox="0 0 138 28"><g transform="translate(-148 -394)"><g transform="translate(148 394)"><path d="M14,0A14,14,0,1,0,28,14,14,14,0,0,0,14,0Zm0,23.333A9.333,9.333,0,1,1,23.333,14,9.331,9.331,0,0,1,14,23.333Z" fill="#fff"/><g transform="translate(7.422 7.43)"><path d="M19.846,21.513a6.493,6.493,0,0,0,1.524-1.47,6.564,6.564,0,1,0-9.186,1.338l3.92-5.25Z" transform="translate(-9.543 -9.553)" fill="#fff"/></g></g><text transform="translate(188 416)" fill="#fff" font-size="23" font-family="HelveticaNeue-Bold, Helvetica Neue" font-weight="700"><tspan x="0" y="0">CMS API</tspan></text></g></svg>